<svg xmlns="http://www.w3.org/2000/svg" viewBox="0 0 32 32" width="32" height="32">
  <defs>
    <linearGradient id="grad1" x1="0%" y1="0%" x2="100%" y2="100%">
      <stop offset="0%" style="stop-color:#1E40AF;stop-opacity:1" />
      <stop offset="100%" style="stop-color:#059669;stop-opacity:1" />
    </linearGradient>
  </defs>
  <rect width="32" height="32" rx="6" fill="url(#grad1)"/>
  <path d="M16 4 L6 10 L6 18 C6 24 16 28 16 28 C16 28 26 24 26 18 L26 10 Z M16 7 L23 11 L23 18 C23 22 16 25 16 25 C16 25 9 22 9 18 L9 11 Z M14 12 L14 18 L18 18 L18 16 L16 16 L16 14 L18 14 L18 12 Z" fill="white"/>
</svg>
